<svg xmlns="http://www.w3.org/2000/svg" viewBox="0 0 176.5 26.5"  xmlns:v="https://vecta.io/nano"><g fill-rule="evenodd"><g fill="#293e40"><path d="M43 8.5c-1.9 0-3.5.7-4.8 1.7V8.7h-4.4v17.1h4.6V14.9c.6-.9 2.2-2.1 4.2-2.1.7 0 1.3.1 1.8.3V8.7c-.5-.1-1-.2-1.4-.2M3.1 20.6c1.2 1.1 3 1.7 4.7 1.7 1.2 0 2.2-.6 2.2-1.4 0-2.6-8.3-1.7-8.3-7.2 0-3.3 3.2-5.3 6.5-5.3 2.2 0 4.6.8 5.8 1.7l-2.1 3.3c-.9-.6-2-1.2-3.3-1.2s-2.3.5-2.3 1.4c0 2.2 8.3 1.3 8.3 7.3 0 3.3-3.2 5.3-6.8 5.3a11.67 11.67 0 0 1-6.9-2.3l2.2-3.3z"/><path d="M31.8 17.1c0-4.8-3.3-8.8-8.1-8.8-5.1 0-8.3 4.2-8.3 8.9 0 5.4 3.8 8.9 8.9 8.9 2.6 0 5.3-1.1 7-3.1l-2.6-2.6c-.8.9-2.4 2-4.3 2-2.4 0-4.4-1.7-4.6-4.1h11.8c.2-.3.2-.7.2-1.2zm-11.7-2c.2-1.6 1.8-3 3.7-3s3.2 1.5 3.4 3h-7.1zm35.1 4.1l4.7-10.5h4.8l-7.9 17.1h-3.2L45.8 8.7h4.7zM68.5.7c1.7 0 3 1.3 3 2.9 0 1.7-1.3 2.9-3 2.9s-3-1.3-3-2.9c0-1.7 1.3-2.9 3-2.9m-2.3 8h4.6v17.1h-4.6zm23.5 13.6c-2 2.7-4.5 3.8-7.7 3.8-5.3 0-9.1-4-9.1-8.9 0-5 4-8.9 9.2-8.9 3 0 5.6 1.4 7.2 3.4l-3.2 2.9c-.9-1.2-2.3-2-3.9-2-2.6 0-4.6 2.1-4.6 4.7 0 2.7 1.9 4.7 4.7 4.7 1.9 0 3.3-1.1 4.1-2.3l3.3 2.6zm16.6.8c-1.7 2-4.4 3.1-7 3.1-5.1 0-8.9-3.5-8.9-8.9 0-4.8 3.2-8.9 8.3-8.9 4.7 0 8.1 4 8.1 8.8 0 .5 0 .9-.1 1.3H94.8c.2 2.4 2.2 4.1 4.6 4.1 1.9 0 3.5-1.1 4.3-2l2.6 2.5zm-4.3-8c-.1-1.5-1.5-3-3.4-3s-3.4 1.4-3.7 3h7.1zm6.5 10.7V8.7h4.4v1.4c1.3-1.1 2.9-1.7 4.8-1.7 2.4 0 4.5 1.1 5.9 2.8 1.1 1.3 1.8 3.1 1.8 6v8.7h-4.6v-9.1c0-1.7-.4-2.6-1-3.2s-1.5-1-2.6-1c-1.9 0-3.5 1.2-4.2 2.1v11.1h-4.5z"/></g><path d="M137.2 8.4c-5.5 0-10 4.4-10 9.9 0 2.9 1.2 5.5 3.1 7.4.7.7 1.8.7 2.6.1 1.1-.9 2.6-1.4 4.3-1.4s3.1.5 4.3 1.4c.8.6 1.9.5 2.6-.2 1.9-1.8 3.1-4.4 3.1-7.3-.1-5.4-4.5-9.9-10-9.9m-.1 15c-3 0-5-2.2-5-5s2-5 5-5 5 2.3 5 5-2 5-5 5" fill="#81b5a1"/><path d="M156.2 25.8h-3.4L146 8.7h4.5l3.7 9.8 3.7-9.8h3.8l3.6 9.8 3.8-9.8h4.6l-6.8 17.1h-3.4l-3.7-9.7z" fill="#293e40"/></g><path d="M173.7 23.9h-.4v.7h-.3v-2h.8c.4 0 .6.3.6.6s-.2.5-.4.6l.5.8h-.4l-.4-.7zm-.4-.3h.5c.2 0 .3-.1.3-.3s-.1-.3-.3-.3h-.5v.6z" fill="#293e40"/><path d="M173.7 21.8a1.79 1.79 0 1 1 0 3.6 1.79 1.79 0 0 1-1.8-1.8c-.1-.9.8-1.8 1.8-1.8m0-.3c-1.2 0-2.1 1-2.1 2.1 0 1.2 1 2.1 2.1 2.1 1.2 0 2.1-1 2.1-2.1s-1-2.1-2.1-2.1h0z" fill="#293e40"/></svg>